<svg xmlns="http://www.w3.org/2000/svg" xmlns:xlink="http://www.w3.org/1999/xlink" fill="none" version="1.1" width="400" height="400" viewBox="0 0 400 400"><defs><clipPath id="master_svg0_1_042"><rect x="0" y="0" width="400" height="400" rx="0"/></clipPath></defs><g style="mix-blend-mode:passthrough" clip-path="url(#master_svg0_1_042)"><g><path d="M193.06150442382813,375.2488719726563L192.61519442382811,365.21343897265626Q192.54560442382814,365.17649797265625,192.47583442382813,365.13990697265626C187.6933544238281,362.63041197265625,182.21219442382812,367.17312197265625,183.73974242382812,372.35350197265626C185.17699442382812,377.22767197265625,186.14263442382813,382.48227197265624,188.77347442382813,386.74857197265624C191.92218442382813,391.76817197265626,197.18283442382813,395.08337197265627,203.06973442382812,395.75777197265626L209.14573442382812,399.47797197265623C210.8330344238281,390.07147197265624,208.31693442382812,380.3978719726563,202.26013442382813,373.0056019726562C200.5608344238281,370.97308197265625,198.61243442382812,369.1626619726562,196.46083442382812,367.61706197265624Q195.00563442382813,371.45421197265625,193.06150442382813,375.2488719726563Z" fill="#F2F2F2" fill-opacity="1"/></g><g><path d="M138.662,273.406C126.964,261.342,110.0117,254.423,92.1523,254.423L91.4634,254.425C79.6999,254.429,68.1463,251.309,57.9842,245.384L56.9268,244.768L57.7785,243.89C62.3894,239.119,66.23949999999999,233.668,69.194,227.728C64.946,231.688,59.1588,233.558,53.3966,232.831C47.3087,232.106,41.887699999999995,228.633,38.6826,223.407C32.4406,213.279,25,198.908,25,187.961C25.019655,169.25,32.90689,151.411,46.7329,138.805C55.488299999999995,130.911,60.471,119.664,60.4361,107.875L60.4327,107.045C60.4315,99.3712,61.3693,91.7257,63.2252,84.2793L63.4136,83.5273L64.1873,83.5543C69.1763,83.7241,74.168,83.3059,79.0592,82.3084C74.4713,81.7457,69.983,80.5519,65.7216,78.761L64.88929999999999,78.4243L65.17179999999999,77.5714C84.6426,65.5158,128.594,71.7588,154.104,13.3923C174.79,-33.9351,247.776,55.4048,247.776,107.045C247.776,112.315,242.561,119.278,246.465,122.761C288.665,160.41,259.547,184.585,250.367,208.912C248.189,214.684,252.912,221.02,252.912,227.264C252.912,228.324,252.885,229.418,252.831,230.515L252.75,232.202L251.343,231.266C248.559,229.442,245.979,227.326,243.646,224.953C248.548,236.233,248.075,249.127,242.358,260.017C237.936,268.364,233.657,274.34,229.642,277.777C202.938,300.629,163.052,298.713,138.662,273.406Z" fill="#E6E6E6" fill-opacity="1"/></g><g><path d="M209.31391567382812,398.9825600585938C209.90841567382813,398.98156005859374,210.41201567382814,398.5445600585938,210.49581567382813,397.95556005859373C210.54661567382811,397.59956005859374,215.52061567382813,361.7255600585937,211.05331567382814,314.04856005859375C206.92781567382812,270.01756005859374,193.67901567382813,206.59686005859373,153.9909156738281,154.51068505859374C153.59157567382812,153.98299665859375,152.83952767382812,153.88012205859374,152.31319967382814,154.28121905859376C151.78687047382812,154.68230005859374,151.68657467382812,155.43468005859376,152.08943167382813,155.95967005859376C191.43471567382812,207.59596005859373,204.57671567382812,270.55056005859376,208.6732156738281,314.27156005859376C213.11451567382812,361.67156005859374,208.17941567382812,397.26456005859376,208.12901567382812,397.61856005859374C208.02721567382812,398.33956005859375,208.58651567382813,398.9825600585938,209.31391567382812,398.9825600585938Z" fill="#3F3D56" fill-opacity="1"/></g><g><path d="M176.92613705444336,227.98054313964843C177.44413705444336,227.98094313964845,177.90313705444336,227.64774313964844,178.06413705444336,227.15514313964843C178.22413705444336,226.66264313964842,178.04913705444335,226.12284313964844,177.63013705444337,225.81834313964845C177.48613705444336,225.71364313964844,162.96613705444338,215.25214313964844,141.26083705444336,207.30461313964844C121.19553705444335,199.95857313964845,90.68313705444336,193.29888313964844,59.27117405444336,203.29619313964844C58.64219705444336,203.49637313964843,58.29455805444336,204.16852313964844,58.49473235444336,204.79750313964843C58.69490705444336,205.42648313964844,59.36706205444336,205.77412313964842,59.99605705444336,205.57394313964843C90.76443705444336,195.78206313964844,120.72373705444336,202.33164313964843,140.43893705444336,209.54964313964842C161.83513705444335,217.38364313964843,176.08313705444334,227.64944313964844,176.22413705444336,227.75214313964844C176.42813705444337,227.90074313964843,176.67413705444335,227.98064313964844,176.92613705444336,227.98054313964843Z" fill="#3F3D56" fill-opacity="1"/></g><g><path d="M231.6320936279297,91.72836388671875C231.6697936279297,91.21176188671875,231.3704936279297,90.72965688671874,230.8906936279297,90.53430938671875C230.41099362792968,90.33896188671875,229.8600936279297,90.47482168671876,229.52619362792967,90.87081388671875C229.4113936279297,91.00696988671875,217.93149362792968,104.73488388671875,208.4413936279297,125.81198388671875C199.66939362792968,145.29618388671875,190.82966362792968,175.24978388671875,198.5388836279297,207.29998388671873C198.6932636279297,207.94198388671873,199.33864362792968,208.33698388671877,199.9804236279297,208.18298388671874C200.6221736279297,208.02798388671874,201.01726362792968,207.38298388671876,200.8629136279297,206.74098388671877C193.3122636279297,175.34748388671875,202.0023436279297,145.93768388671876,210.62139362792968,126.79348388671875C219.97589362792968,106.01728388671876,231.24109362792967,92.54551388671875,231.3536936279297,92.41181388671875C231.5165936279297,92.21923388671875,231.6139936279297,91.97991388671875,231.6320936279297,91.72836388671875Z" fill="#3F3D56" fill-opacity="1"/></g><g><path d="M251.73538770089843,392.4441751464844L257.38856767089845,392.4436751464844L260.0778376708984,370.6382751464844L251.73423767089844,370.63883273548436L251.73538770089843,392.4441751464844Z" fill="#FFB6B6" fill-opacity="1"/></g><g><path d="M251.53667100591406,398.34142560546877L268.92099221191404,398.34075560546876L268.92099221191404,398.12092560546876C268.9205922119141,394.38383560546873,265.89129221191405,391.35455560546876,262.15459221191406,391.35455560546876L262.1540922119141,391.35455560546876L258.97867221191404,388.94549560546875L253.05394221191406,391.35494560546874L251.53639221191406,391.3549756054687L251.53667100591406,398.34142560546877Z" fill="#2F2E41" fill-opacity="1"/></g><g><path d="M229.46751965890624,392.4441751464844L235.12069962890624,392.4436751464844L237.80996962890626,370.6382751464844L229.46636962890625,370.63883273548436L229.46751965890624,392.4441751464844Z" fill="#FFB6B6" fill-opacity="1"/></g><g><path d="M229.26880296392187,398.34142560546877L246.65312416992188,398.34075560546876L246.65312416992188,398.12092560546876C246.65272416992187,394.38383560546873,243.62342416992186,391.35455560546876,239.88672416992188,391.35455560546876L239.8862241699219,391.35455560546876L236.7108041699219,388.94549560546875L230.78607416992187,391.35494560546874L229.26852416992188,391.3549756054687L229.26880296392187,398.34142560546877Z" fill="#2F2E41" fill-opacity="1"/></g><g><path d="M271.1895787353516,255.87298860839843L275.1863787353516,269.57624860839843L270.47787873535157,327.61254860839847Q272.90247873535156,331.24104860839844,271.1895787353516,331.24104860839844C269.4766787353516,331.24104860839844,267.28017873535157,332.04584860839844,268.66387873535155,334.2128486083984Q270.04767873535155,336.37984860839845,265.31807873535155,344.15964860839847L258.6281787353516,385.4834486083985L250.10407873535155,385.35744860839844Q245.77037873535156,382.9434486083984,248.20247873535158,380.50144860839845C250.63457873535157,378.0604486083984,252.34747873535156,378.0604486083984,250.06357873535157,375.7764486083984C247.77967873535155,373.49244860839843,247.77967873535155,374.1804486083984,247.77967873535155,372.4094486083984C247.77967873535155,370.63844860839845,245.49157873535157,348.99064860839843,250.91787873535156,340.68684860839846L249.28287873535157,306.83094860839844L245.43187873535157,340.0394486083984L237.50227873535155,384.3414486083984L229.29072873535156,384.27344860839844Q225.49790673535156,380.61844860839847,225.50491173535156,377.9114486083985C225.51191673535158,375.20544860839846,227.84827873535156,374.9814486083984,226.10912873535156,373.3804486083984C224.36997473535158,371.78044860839844,224.36993973535155,347.1922486083985,229.50867873535157,333.5249486083984Q232.41552873535156,325.88884860839846,229.50208873535155,323.27224860839846Q226.58865873535157,320.6555486083984,229.49849873535157,317.66154860839845Q234.11292873535157,315.99344860839847,229.49431873535156,311.1874486083984Q224.87570773535157,306.3813486083984,229.46936873535157,272.39044860839846Q224.42043673535156,258.66967860839844,229.53393873535157,253.27448860839843Q234.64744873535156,247.87929860839844,271.1895787353516,255.87298860839843Z" fill="#2F2E41" fill-opacity="1"/></g><g><path d="M200.00400764648438,279.48240654296876L207.13500764648438,262.24920654296875L212.75338764648438,265.37051654296874L209.36038764648438,282.90110654296876C210.30408764648436,285.9855065429688,208.74278764648437,289.28110654296876,205.75825764648437,290.50460654296876C202.77365764648437,291.7280065429687,199.34845764648438,290.47650654296876,197.85568864648437,287.61710654296877C196.3629196464844,284.7577065429688,197.29405764648436,281.2319065429688,200.00400764648438,279.48240654296876Z" fill="#FFB6B6" fill-opacity="1"/></g><g><path d="M319.6647384765625,143.2083805419922L308.8144484765625,158.3776805419922L304.0494384765625,154.0645805419922L311.3262884765625,137.75872054199218C311.1059684765625,134.5406305419922,313.3733284765625,131.6844865419922,316.5575384765625,131.16910064199217C319.7417384765625,130.6537145419922,322.7942384765625,132.64877054199218,323.6003384765625,135.7720505419922C324.40643847656247,138.8953305419922,322.7006384765625,142.1184805419922,319.6647384765625,143.2083805419922Z" fill="#FFB6B6" fill-opacity="1"/></g><g><path d="M272.2662473388672,257.2776942138672C279.3038473388672,268.19369421386716,243.92824733886718,282.0466942138672,230.3544473388672,276.4856942138672C227.9776473388672,275.5116942138672,219.8017473388672,272.29469421386716,225.3902473388672,267.8356942138672C230.97874733886718,263.3756942138672,224.74224733886717,262.74869421386717,224.5948473388672,259.8456942138672C224.4963473388672,257.9046942138672,225.9989473388672,253.6466942138672,224.4311473388672,253.82969421386719C222.8633473388672,254.0116942138672,221.02824733886717,251.32769421386718,224.44284733886718,250.1726942138672C227.8574473388672,249.01769421386717,224.4794473388672,247.96469421386718,224.5093473388672,246.86869421386717Q224.83584733886718,234.9033942138672,234.0159473388672,215.87209421386717L217.47434733886718,258.1566942138672Q217.5964473388672,265.4716942138672,215.4870473388672,263.23669421386717Q213.37764733886718,261.0006942138672,213.53114733886719,268.2356942138672Q210.39446733886717,270.42469421386716,212.1981473388672,271.6436942138672Q214.00184733886718,272.86169421386717,210.2562973388672,276.60769421386715L201.5166473388672,275.98269421386715Q201.6534653388672,269.4906942138672,203.1457173388672,268.0546942138672Q204.63795733886718,266.6186942138672,203.90497733886718,264.3596942138672Q207.79017733886718,260.9206942138672,205.1854773388672,258.1276942138672C201.8355183388672,254.53669421386718,214.0493473388672,193.8768942138672,218.2643473388672,194.47759421386718C219.4794473388672,188.56409421386718,223.9090473388672,183.83199421386718,229.72954733886718,182.22939421386718L239.16894733886718,179.6303942138672L240.84514733886718,172.9799942138672L254.13644733886719,172.9799942138672L256.4516473388672,177.3497942138672L266.5565473388672,181.90989421386718C268.4599473388672,179.22429421386718,269.8823473388672,176.3943942138672,277.6765473388672,175.4769942138672Q298.6782473388672,156.3683942138672,297.6528473388672,154.8763942138672Q296.6275473388672,153.3843542138672,299.8830473388672,149.89120421386718Q302.6636473388672,148.9812042138672,301.0945473388672,148.4953642138672Q299.5256473388672,148.0095342138672,302.4916473388672,146.8862242138672Q305.2376473388672,146.1645042138672,303.9426473388672,145.2142342138672Q302.6466473388672,144.26396721386718,308.2656473388672,143.6396942138672L315.5546473388672,149.58738421386718L314.0816473388672,152.0856142138672Q314.97964733886715,155.4874942138672,313.8076473388672,154.24549421386718Q312.6346473388672,153.0036142138672,312.4146473388672,156.60769421386718Q311.81564733886717,160.5542942138672,308.2656473388672,161.7432942138672Q304.71464733886717,162.93229421386718,302.02264733886716,174.22839421386718C293.6495473388672,185.1151942138672,283.7680473388672,193.6079942138672,272.0582473388672,199.1987942138672Q276.62184733886716,204.4370942138672,272.2662473388672,257.2776942138672Z" fill="#F9A826" fill-opacity="1"/></g><g><path d="M231.146541,159.6644354736328C232.15501,167.80103547363282,237.79296,174.50973547363282,245.9918,174.50973547363282C254.1906,174.50973547363282,260.8371,167.8632354736328,260.837,159.6644354736328C260.837,151.4656654736328,254.1554,145.5772494736328,245.9918,144.8192252736328C237.32964,144.01492147363282,229.85179,149.2181654736328,231.146541,159.6644354736328Z" fill="#2F2E41" fill-opacity="1"/></g><g><ellipse cx="247.6327600479126" cy="162.22708988189697" rx="13.164132118225098" ry="13.164132118225098" fill="#FFB6B6" fill-opacity="1"/></g><g><path d="M234.00139476757812,163.6613C234.41819276757812,166.52179999999998,236.8562467675781,170.5129,236.28527676757813,170.5129C235.71430676757814,170.5129,231.65471676757812,158.7205,235.71430676757814,157.9515C238.65893676757813,157.3938,239.31713676757812,157.883,242.06921676757813,156.6897L241.68095676757812,157.0551C243.50233676757813,158.3798,246.03743676757813,157.5633,248.11583676757812,156.7011C250.19983676757812,155.8447,252.72923676757813,155.0282,254.55633676757813,156.3471C255.70403676757812,157.1751,256.18933676757814,158.6139,256.9030367675781,159.8358C257.6167367675781,161.0633,258.93573676757813,162.2224,260.29463676757814,161.8456C261.3851367675781,161.543,262.0132367675781,160.3211,262.00753676757813,159.1906C262.00183676757814,158.0601,260.52973676757813,156.9846,261.0254367675781,155.9703C262.4947367675781,152.96444,261.1734367675781,150.91562,257.97083676757813,149.50119Q256.2236367675781,149.23569,254.47643676757812,148.95876C255.08683676757812,148.11335,255.82683676757813,147.36956,256.6690367675781,146.75482C256.31323676757813,145.8425,255.6978367675781,145.05444,254.89903676757814,144.488064C253.96833676757814,143.934222,252.81493676757813,143.9741941,251.73583676757812,144.0312947Q248.12163676757814,144.219707,244.51303676757811,144.408138C242.73162676757812,144.499495,240.8874067675781,144.607981,239.29440676757812,145.42446C237.3074467675781,146.44651,236.00561676757812,148.43919,235.05777676757813,150.46613C232.93368276757812,155.0225,233.27053576757814,158.6881,234.00139476757812,163.6613Z" fill="#2F2E41" fill-opacity="1"/></g><g><path d="M178.10722122265625,399.82452375L307.57467822265625,399.99999375C307.9506782226563,399.99999375,308.25467822265625,399.69561375,308.25467822265625,399.32014975C308.25467822265625,398.94468375,307.9506782226563,398.64030975,307.57467822265625,398.64030975L178.10722122265625,398.46484375C177.73381122265624,398.46780594,177.43267822265625,398.77130875,177.43267822265625,399.14471875C177.43267822265625,399.51813375,177.73384622265624,399.82163375,178.10722122265625,399.82452375Z" fill="#CACACA" fill-opacity="1"/></g><g transform="matrix(0.1439807265996933,-0.989580512046814,0.989580512046814,0.1439807265996933,-234.02398616763355,414.04344763549716)"><ellipse cx="125.3119785785675" cy="346.6052508354187" rx="3.0014851093292236" ry="4.314631938934326" fill="#E6E6E6" fill-opacity="1"/></g><g transform="matrix(0.1439807265996933,-0.989580512046814,0.989580512046814,0.1439807265996933,-207.27983522508657,439.4813156397331)"><ellipse cx="153.38746547698975" cy="343.8657183647156" rx="3.001479148864746" ry="4.314631938934326" fill="#3F3D56" fill-opacity="1"/></g><g transform="matrix(0.1439807265996933,-0.989580512046814,0.989580512046814,0.1439807265996933,-218.11250568110484,386.97891310923796)"><ellipse cx="117.62406659126282" cy="323.87594175338745" rx="3.0014851093292236" ry="4.314631938934326" fill="#FF6584" fill-opacity="1"/></g><g transform="matrix(0.007561566773802042,-0.9999713897705078,0.9999713897705078,0.007561566773802042,-204.44578315718383,416.4451982656512)"><ellipse cx="110.30704021453857" cy="313.1183409690857" rx="2.7268476486206055" ry="1.8969359397888184" fill="#E6E6E6" fill-opacity="1"/></g><g transform="matrix(0.007561566773802042,-0.9999713897705078,0.9999713897705078,0.007561566773802042,-191.21079553412193,395.09802764926184)"><ellipse cx="106.16993236541748" cy="295.7770323753357" rx="2.7268476486206055" ry="1.8969359397888184" fill="#3F3D56" fill-opacity="1"/></g><g transform="matrix(0.007561566773802042,-0.9999713897705078,0.9999713897705078,0.007561566773802042,-189.80122651982236,457.5572349152254)"><ellipse cx="138.34136486053467" cy="326.29650259017944" rx="2.7268476486206055" ry="1.8969359397888184" fill="#E6E6E6" fill-opacity="1"/></g><g transform="matrix(0.007561566773802042,-0.9999713897705078,0.9999713897705078,0.007561566773802042,-210.03973618517279,450.7131422267154)"><ellipse cx="124.7740888595581" cy="333.0705199241638" rx="2.7268476486206055" ry="1.8969359397888184" fill="#FF6584" fill-opacity="1"/></g><g transform="matrix(0.007561566773802042,-0.9999713897705078,0.9999713897705078,0.007561566773802042,-203.81612866358546,482.0242107506748)"><ellipse cx="143.66025829315186" cy="345.5906310081482" rx="2.7268476486206055" ry="1.8969359397888184" fill="#3F3D56" fill-opacity="1"/></g><g transform="matrix(0.1439807265996933,-0.989580512046814,0.989580512046814,0.1439807265996933,37.741399451574125,552.3522786897233)"><ellipse cx="341.13896679878235" cy="258.67574644088745" rx="3.0014851093292236" ry="4.314631938934326" fill="#E6E6E6" fill-opacity="1"/></g><g transform="matrix(0.1439807265996933,-0.989580512046814,0.989580512046814,0.1439807265996933,64.48560222443075,577.7901150584069)"><ellipse cx="369.2144613265991" cy="255.93616819381714" rx="3.001479148864746" ry="4.314631938934326" fill="#3F3D56" fill-opacity="1"/></g><g transform="matrix(0.1439799964427948,-0.989579975605011,0.989579975605011,0.1439799964427948,53.65276913539674,525.2872769164082)"><ellipse cx="333.45054745674133" cy="235.94647789001465" rx="3.001481294631958" ry="4.314626693725586" fill="#FF6584" fill-opacity="1"/></g><g transform="matrix(0.007561566773802042,-0.9999713897705078,0.9999713897705078,0.007561566773802042,97.67620370619048,545.0013616487765)"><ellipse cx="326.13401317596436" cy="225.18882131576538" rx="2.7268476486206055" ry="1.8969359397888184" fill="#E6E6E6" fill-opacity="1"/></g><g transform="matrix(0.007561566773802042,-0.9999713897705078,0.9999713897705078,0.007561566773802042,110.91121404436544,523.654213919916)"><ellipse cx="321.99692821502686" cy="207.84751272201538" rx="2.7268476486206055" ry="1.8969359397888184" fill="#3F3D56" fill-opacity="1"/></g><g transform="matrix(0.007561566773802042,-0.9999713897705078,0.9999713897705078,0.007561566773802042,112.32073762843888,586.1133754108221)"><ellipse cx="354.16831493377686" cy="238.36698293685913" rx="2.7268476486206055" ry="1.8969359397888184" fill="#E6E6E6" fill-opacity="1"/></g><g transform="matrix(0.007561566773802042,-0.9999713897705078,0.9999713897705078,0.007561566773802042,92.08228865166706,579.2693133539608)"><ellipse cx="340.6010847091675" cy="245.14098501205444" rx="2.7268476486206055" ry="1.8969359397888184" fill="#FF6584" fill-opacity="1"/></g><g transform="matrix(0.007561566773802042,-0.9999713897705078,0.9999713897705078,0.007561566773802042,98.30585062808444,610.580366504624)"><ellipse cx="359.4872236251831" cy="257.6611113548279" rx="2.7268476486206055" ry="1.8969359397888184" fill="#3F3D56" fill-opacity="1"/></g><g transform="matrix(0.1439807265996933,-0.989580512046814,0.989580512046814,0.1439807265996933,109.32909720855628,309.65610936913095)"><ellipse cx="236.6512806415558" cy="95.94904661178589" rx="3.0014851093292236" ry="4.314631938934326" fill="#FFFFFF" fill-opacity="1"/></g><g transform="matrix(0.1439807265996933,-0.989580512046814,0.989580512046814,0.1439807265996933,136.07331651716504,335.09401062994164)"><ellipse cx="264.72682094573975" cy="93.20949125289917" rx="3.001479148864746" ry="4.314631938934326" fill="#3F3D56" fill-opacity="1"/></g><g transform="matrix(0.1439807265996933,-0.989580512046814,0.989580512046814,0.1439807265996933,125.24056810720208,282.59160953539833)"><ellipse cx="228.96338391304016" cy="73.21976041793823" rx="3.0014851093292236" ry="4.314631938934326" fill="#FF6584" fill-opacity="1"/></g><g transform="matrix(0.007561566773802042,-0.9999713897705078,0.9999713897705078,0.007561566773802042,156.700652230813,279.02046428752794)"><ellipse cx="221.64634227752686" cy="62.46213674545288" rx="2.7268476486206055" ry="1.8969359397888184" fill="#E6E6E6" fill-opacity="1"/></g><g transform="matrix(0.007561566773802042,-0.9999713897705078,0.9999713897705078,0.007561566773802042,169.9356246529943,257.67329361366666)"><ellipse cx="217.50922679901123" cy="45.12083578109741" rx="2.7268476486206055" ry="1.8969359397888184" fill="#3F3D56" fill-opacity="1"/></g><g transform="matrix(0.007561566773802042,-0.9999713897705078,0.9999713897705078,0.007561566773802042,171.34520869575877,320.13254653974394)"><ellipse cx="249.68068981170654" cy="75.64032125473022" rx="2.7268476486206055" ry="1.8969359397888184" fill="#E6E6E6" fill-opacity="1"/></g><g transform="matrix(0.007561566773802042,-0.9999713897705078,0.9999713897705078,0.007561566773802042,151.10669926029593,313.28839304771145)"><ellipse cx="236.11338329315186" cy="82.41430807113647" rx="2.7268476486206055" ry="1.8969359397888184" fill="#FF6584" fill-opacity="1"/></g><g transform="matrix(0.007561566773802042,-0.9999713897705078,0.9999713897705078,0.007561566773802042,157.33031452600326,344.59942359820536)"><ellipse cx="254.99953746795654" cy="94.93439626693726" rx="2.7268476486206055" ry="1.8969359397888184" fill="#3F3D56" fill-opacity="1"/></g></g></svg>