<?xml version="1.0" standalone="no"?><!DOCTYPE svg PUBLIC "-//W3C//DTD SVG 1.1//EN" "http://www.w3.org/Graphics/SVG/1.1/DTD/svg11.dtd"><svg t="1675504432664" class="icon" viewBox="0 0 1024 1024" version="1.1" xmlns="http://www.w3.org/2000/svg" p-id="7402" width="64" height="64" xmlns:xlink="http://www.w3.org/1999/xlink"><path d="M512 512m-510.246575 0a510.246575 510.246575 0 1 0 1020.49315 0 510.246575 510.246575 0 1 0-1020.49315 0Z" fill="#A3D73C" p-id="7403"></path><path d="M512 512m-490.958904 0a490.958904 490.958904 0 1 0 981.917808 0 490.958904 490.958904 0 1 0-981.917808 0Z" fill="#FFFFFF" p-id="7404"></path><path d="M482.012932 458.29611c13.150685 14.132603 30.881315 17.099397 28.514191-8.63737-2.367123-25.740274-40.128877-333.266411-58.234739-365.389151-18.105863-32.12274-49.874411-20.644822-90.10148-8.865315-40.227068 11.779507-86.503452 37.372493-74.299616 77.080548 12.203836 39.704548 180.970959 291.675178 194.121644 305.811288zM540.054795 450.581041c-5.421589 12.60011 2.510904 22.184329 17.141479 12.60011 14.630575-9.587726 284.552767-220.672 288.729425-246.70685 4.180164-26.031342-50.919452-77.336548-85.121754-96.736438-34.198795-19.39989-105.521096-52.269589-115.375342-6.371945-9.854247 45.894137-99.952219 324.618521-105.373808 337.21863z" fill="#C5EC77" p-id="7405"></path><path d="M562.347836 475.598904c-5.866959 10.369753 4.783342 13.199781 14.290411 10.064658 9.507068-3.131616 339.561205-66.840548 363.667287-74.639781 24.106082-7.795726 4.593973-72.612822-8.297205-106.573151-12.894685-33.963836-48.271781-90.957151-73.14937-79.430137-24.877589 11.530521-290.644164 240.205151-296.511123 250.574904zM560.036822 545.553534c7.196055 10.846685 222.797151 251.868932 262.757699 259.541918 39.957041 7.669479 74.408329-19.557699 90.469698-51.666411 16.06137-32.105205 44.978849-98.963288 6.347397-107.835616-38.634959-8.868822-338.656438-124.345863-352.263013-124.345863-13.606575 0-14.507836 13.455781-7.311781 24.302465z" fill="#C5EC77" p-id="7406"></path><path d="M544.778521 554.916822c0 12.284493 75.579616 304.271781 88.712767 349.141918 9.924384 33.886685 56.13063 41.496548 115.571726 12.473863 33.483397-16.352438 92.896438-57.421151 80.103452-76.884165-12.796493-19.459507-259.219288-274.323288-269.129644-284.731616-9.913863-10.411836-15.254795-12.284493-15.254795 0zM492.196822 559.096986c8.465534-11.155288 14.318466-17.902466 19.803178 0 5.484712 17.905973-61.738082 271.984219-67.661151 339.452493-5.926575 67.468274-72.50411 49.807781-104.486575 35.135124-31.982466-14.672658-80.401534-38.336877-68.495781-72.518137 11.905753-34.177753 212.374795-290.910685 220.840329-302.06948zM536.670685 452.713205c-4.138082 13.37863-7.329315 21.721425-18.607343 6.771727s-35.008877-276.697425-52.518575-342.121206c-17.506192-65.423781 51.094795-71.599342 86.166795-68.751781 35.068493 2.847562 88.663671 8.525151 89.168657 44.715836 0.501479 36.190685-100.067945 346.003288-104.209534 359.381918z" fill="#C5EC77" p-id="7407"></path><path d="M468.437918 542.33074c28.657973-13.704767 21.416329 1.360658 11.000986 17.814794-10.415342 16.461151-188.696548 274.021699-228.702685 297.882302-22.107178 13.185753-64.287562-16.973151-96.568109-56.796932-26.255781-32.396274-60.966575-76.09863-27.202631-104.455014 33.767452-28.356384 312.810959-140.74389 341.472439-154.44515zM480.185863 458.026082c-11.306082-8.206027-191.894795-293.190137-210.919452-306.288219-19.021151-13.101589-68.302904 2.093589-105.040658 45.403178-36.737753 43.306082-67.815452 91.535781-17.400986 119.04 50.417973 27.504219 311.604603 156.545753 322.910685 161.118685 11.299068 4.576438 21.752986-11.067616 10.450411-19.273644z" fill="#C5EC77" p-id="7408"></path><path d="M508.791233 527.54937c-4.344986 6.831342-9.117808 14.304438-9.598247 15.507288-0.462904 1.15726 4.653589-5.130521 9.738521-11.45337 5.084932-6.319342 16.50674-5.909041 17.050301 0 0.543562 5.909041 0.683836 9.994521 0.683836 11.747945 0 1.392219 0.234959-4.404603 0.526027-10.383781 0.284055-5.979178 11.45337-6.435068 17.232658-1.329096 5.779288 5.109479 9.759562 9.223014 10.639781 9.938411 1.364164 1.111671-10.450411-11.754959-16.966137-18.898411-6.52274-7.139945 0.077151-11.537534 5.695123-11.64274 5.617973-0.101699 12.140712 0.028055 13.606575 0.028055 1.613151 0-7.511671-0.259507-14.09052-1.045041-2.805479-0.333151-6.301808-12.032-1.59211-16.510246 4.709699-4.47474 10.176877-9.41589 11.337644-10.720439 2.009425-2.254904-9.184438 5.751233-13.725808 8.448-4.54137 2.700274-11.214904 1.392219-11.397261-4.141589-0.18937-5.533808-1.265973-11.958356-1.265972-13.532931 0-1.571068-2.244384 10.864219-2.837041 13.532931-0.589151 2.668712-4.429151 7.760658-8.605808 4.888548-4.173151-2.87211-9.012603-7.311781-9.959453-8.255123-0.704877-0.704877 4.569425 8.079781 7.764165 13.196274 1.055562 1.693808-3.822466 10.054137-5.856439 10.036603-6.733151-0.052603-16.054356-0.904767-19.249095-0.904768-3.050959 0 9.429918 1.21337 16.632986 2.924713 7.199562 1.711342 8.577753 11.737425 4.236274 18.568767z" fill="#EAF1DC" p-id="7409"></path><path d="M471.559014 501.942356c-8.882849-1.167781-374.128219-24.411178-399.910576-45.273424-25.782356-20.862247-12.442301-69.744219-5.751233-91.886466 6.698082-22.145753 25.284384-60.335342 41.152877-60.335343 15.872 0 361.426411 177.625425 368.892493 180.728987 7.466082 3.103562 4.495781 17.934027-4.383561 16.766246z" fill="#C5EC77" p-id="7410"></path><path d="M73.401863 485.172603c32.999452-18.768658 360.363836 19.301699 381.881863 21.304109 21.514521 2.005918 18.186521 23.313534 7.420493 27.353425-10.766027 4.032877-328.616329 158.07474-352.70137 158.07474-24.088548 0-41.664877-69.295342-47.647561-90.150576-5.979178-20.85874-21.952877-97.806027 11.046575-116.578191zM950.689315 433.446575c-34.514411-15.822904-357.312877 50.635397-378.571397 54.506959-21.262027 3.871562-16.089425 24.807452-5.014795 27.89348 11.081644 3.082521 341.146301 128.831123 365.140165 126.734027 23.993863-2.10411 35.468274-72.661918 39.609863-93.96252 4.138082-21.297096 13.347068-99.349041-21.163836-115.171946zM522.520548 550.435068c-4.892055 13.448767-91.619945 371.873315-76.393206 398.374576 15.230247 26.50126 70.943562 27.893479 88.477809 27.893479s79.998247-1.65874 89.61052-38.540274c9.615781-36.885041-81.569315-376.298959-84.160876-383.480986-2.595068-7.178521-12.642192-17.699068-17.534247-4.250301z" fill="#C5EC77" p-id="7411"></path></svg>